{
  "accessors": [
    {
      "bufferView": 2,
      "componentType": 5126,
      "count": 821,
      "max": [
        0.09658399969339371,
        0.15735399723052979,
        0.05653899908065796
      ],
      "min": [
        -0.09658399969339371,
        -6.500000017695129e-05,
        -0.0652339980006218
      ],
      "type": "VEC3"
    },
    {
      "bufferView": 2,
      "byteOffset": 9852,
      "componentType": 5126,
      "count": 821,
      "max": [
        0.9974138736724854,
        0.9999986290931702,
        1.0
      ],
      "min": [
        -0.9974138736724854,
        -0.9999424815177917,
        -0.9999663829803467
      ],
      "type": "VEC3"
    },
    {
      "bufferView": 1,
      "componentType": 5126,
      "count": 821,
      "max": [
        0.9939560294151306,
        0.9836300015449524
      ],
      "min": [
        0.007511999923735857,
        0.03486200049519539
      ],
      "type": "VEC2"
    },
    {
      "bufferView": 0,
      "componentType": 5125,
      "count": 3354,
      "type": "SCALAR"
    },
    {
      "bufferView": 2,
      "byteOffset": 19704,
      "componentType": 5126,
      "count": 111,
      "max": [
        0.030903000384569168,
        0.111735999584198,
        0.03193200007081032
      ],
      "min": [
        -0.030903000384569168,
        0.04943700134754181,
        -0.020529000088572502
      ],
      "type": "VEC3"
    },
    {
      "bufferView": 2,
      "byteOffset": 21036,
      "componentType": 5126,
      "count": 111,
      "max": [
        0.9739595055580139,
        0.6791772246360779,
        0.9926028847694397
      ],
      "min": [
        -0.9739593863487244,
        -0.49863389134407043,
        -0.9992718696594238
      ],
      "type": "VEC3"
    },
    {
      "bufferView": 1,
      "byteOffset": 6568,
      "componentType": 5126,
      "count": 111,
      "max": [
        1.0,
        0.9963819980621338
      ],
      "min": [
        0.0,
        0.5039060115814209
      ],
      "type": "VEC2"
    },
    {
      "bufferView": 0,
      "byteOffset": 13416,
      "componentType": 5125,
      "count": 504,
      "type": "SCALAR"
    },
    {
      "bufferView": 2,
      "byteOffset": 22368,
      "componentType": 5126,
      "count": 62,
      "max": [
        0.02261500060558319,
        0.15247900784015656,
        0.022357000038027763
      ],
      "min": [
        -0.02261500060558319,
        0.12255699932575226,
        -0.02958500012755394
      ],
      "type": "VEC3"
    },
    {
      "bufferView": 2,
      "byteOffset": 23112,
      "componentType": 5126,
      "count": 62,
      "max": [
        0.9926460981369019,
        0.8006938695907593,
        0.8409368991851807
      ],
      "min": [
        -0.9926460981369019,
        -0.5054727792739868,
        -0.9999973773956299
      ],
      "type": "VEC3"
    },
    {
      "bufferView": 1,
      "byteOffset": 7456,
      "componentType": 5126,
      "count": 62,
      "max": [
        0.9896169900894165,
        0.9299759864807129
      ],
      "min": [
        0.008794999681413174,
        0.0928720012307167
      ],
      "type": "VEC2"
    },
    {
      "bufferView": 0,
      "byteOffset": 15432,
      "componentType": 5125,
      "count": 276,
      "type": "SCALAR"
    },
    {
      "bufferView": 3,
      "componentType": 5126,
      "count": 1,
      "max": [
        1.0,
        0.0,
        0.0,
        0.0,
        0.0,
        1.0,
        0.0,
        0.0,
        0.0,
        0.0,
        1.0,
        0.0,
        0.0,
        0.0,
        0.0,
        1.0
      ],
      "min": [
        1.0,
        0.0,
        0.0,
        0.0,
        0.0,
        1.0,
        0.0,
        0.0,
        0.0,
        0.0,
        1.0,
        0.0,
        0.0,
        0.0,
        0.0,
        1.0
      ],
      "type": "MAT4"
    }
  ],
  "asset": {
    "extras": {
      "author": "akennedy007 (https://sketchfab.com/akennedy007)",
      "license": "CC-BY-4.0 (http://creativecommons.org/licenses/by/4.0/)",
      "source": "https://sketchfab.com/3d-models/animal-crossing-pocket-camp-apollo-2e7c396d3a9a43a1b1d512c713ef0a77",
      "title": "Animal Crossing Pocket Camp Apollo"
    },
    "generator": "Sketchfab-12.67.0",
    "version": "2.0"
  },
  "bufferViews": [
    {
      "buffer": 0,
      "byteLength": 16536,
      "name": "floatBufferViews",
      "target": 34963
    },
    {
      "buffer": 0,
      "byteLength": 7952,
      "byteOffset": 16536,
      "byteStride": 8,
      "name": "floatBufferViews",
      "target": 34962
    },
    {
      "buffer": 0,
      "byteLength": 23856,
      "byteOffset": 24488,
      "byteStride": 12,
      "name": "floatBufferViews",
      "target": 34962
    },
    {
      "buffer": 0,
      "byteLength": 64,
      "byteOffset": 48344,
      "name": "floatBufferViews"
    }
  ],
  "buffers": [
    {
      "byteLength": 48408,
      "uri": "scene.bin"
    }
  ],
  "extensionsUsed": [
    "KHR_materials_unlit"
  ],
  "images": [
    {
      "uri": "textures/material_baseColor.png"
    },
    {
      "uri": "textures/cloth_baseColor.png"
    },
    {
      "uri": "textures/material_2_baseColor.png"
    }
  ],
  "materials": [
    {
      "alphaMode": "BLEND",
      "doubleSided": true,
      "extensions": {
        "KHR_materials_unlit": {}
      },
      "name": "material",
      "pbrMetallicRoughness": {
        "baseColorTexture": {
          "index": 0
        },
        "metallicFactor": 0.0
      }
    },
    {
      "doubleSided": true,
      "extensions": {
        "KHR_materials_unlit": {}
      },
      "name": "cloth",
      "pbrMetallicRoughness": {
        "baseColorTexture": {
          "index": 1
        },
        "metallicFactor": 0.0
      }
    },
    {
      "doubleSided": true,
      "extensions": {
        "KHR_materials_unlit": {}
      },
      "name": "material_2",
      "pbrMetallicRoughness": {
        "baseColorTexture": {
          "index": 2
        },
        "metallicFactor": 0.0
      }
    }
  ],
  "meshes": [
    {
      "name": "Object_0",
      "primitives": [
        {
          "attributes": {
            "NORMAL": 1,
            "POSITION": 0,
            "TEXCOORD_0": 2
          },
          "indices": 3,
          "material": 0,
          "mode": 4
        }
      ]
    },
    {
      "name": "Object_1",
      "primitives": [
        {
          "attributes": {
            "NORMAL": 5,
            "POSITION": 4,
            "TEXCOORD_0": 6
          },
          "indices": 7,
          "material": 1,
          "mode": 4
        }
      ]
    },
    {
      "name": "Object_2",
      "primitives": [
        {
          "attributes": {
            "NORMAL": 9,
            "POSITION": 8,
            "TEXCOORD_0": 10
          },
          "indices": 11,
          "material": 2,
          "mode": 4
        }
      ]
    }
  ],
  "nodes": [
    {
      "children": [
        1
      ],
      "matrix": [
        1.0,
        0.0,
        0.0,
        0.0,
        0.0,
        2.220446049250313e-16,
        -1.0,
        0.0,
        0.0,
        1.0,
        2.220446049250313e-16,
        0.0,
        0.0,
        0.0,
        0.0,
        1.0
      ],
      "name": "Sketchfab_model"
    },
    {
      "children": [
        2
      ],
      "matrix": [
        1.0,
        0.0,
        0.0,
        0.0,
        0.0,
        -4.371139006309477e-08,
        0.999999999999999,
        0.0,
        0.0,
        -0.999999999999999,
        -4.371139006309477e-08,
        0.0,
        0.0,
        0.0,
        0.0,
        1.0
      ],
      "name": "Collada visual scene group"
    },
    {
      "children": [
        3,
        4,
        5,
        6
      ],
      "name": "Object_2"
    },
    {
      "name": "_rootJoint"
    },
    {
      "mesh": 0,
      "name": "Object_4"
    },
    {
      "mesh": 1,
      "name": "Object_5"
    },
    {
      "mesh": 2,
      "name": "Object_6"
    }
  ],
  "samplers": [
    {
      "magFilter": 9729,
      "minFilter": 9987,
      "wrapS": 10497,
      "wrapT": 10497
    }
  ],
  "scene": 0,
  "scenes": [
    {
      "name": "Sketchfab_Scene",
      "nodes": [
        0
      ]
    }
  ],
  "skins": [
    {
      "inverseBindMatrices": 12,
      "joints": [
        3
      ],
      "skeleton": 3
    }
  ],
  "textures": [
    {
      "sampler": 0,
      "source": 0
    },
    {
      "sampler": 0,
      "source": 1
    },
    {
      "sampler": 0,
      "source": 2
    }
  ]
}
